<?xml version="1.0" standalone="no"?>
<!DOCTYPE svg PUBLIC "-//W3C//DTD SVG 20010904//EN"
 "http://www.w3.org/TR/2001/REC-SVG-20010904/DTD/svg10.dtd">
<svg version="1.0" xmlns="http://www.w3.org/2000/svg"
 width="256.000000pt" height="256.000000pt" viewBox="0 0 256.000000 256.000000"
 preserveAspectRatio="xMidYMid meet">
<metadata>
Created by potrace 1.14, written by Peter Selinger 2001-2017
</metadata>
<g transform="translate(0.000000,256.000000) scale(0.100000,-0.100000)"
fill="#000000" stroke="none">
<path d="M0 1280 l0 -1280 1280 0 1280 0 0 1280 0 1280 -1280 0 -1280 0 0
-1280z m1449 1152 c19 -9 48 -34 65 -55 29 -36 31 -44 31 -121 0 -73 -3 -87
-28 -124 -15 -23 -46 -54 -69 -69 -34 -23 -52 -28 -105 -28 -63 0 -65 1 -103
41 -150 161 21 452 209 356z m466 -5 c45 -25 95 -109 95 -159 0 -126 -101
-237 -216 -238 -108 0 -186 133 -150 254 42 139 163 204 271 143z m-296 -568
c186 -64 291 -225 317 -490 7 -77 -10 -201 -38 -279 -27 -73 -99 -181 -151
-226 -90 -77 -308 -165 -497 -199 -52 -9 -101 -19 -107 -21 -9 -2 -13 -24 -14
-61 0 -32 -4 -138 -8 -236 -5 -139 -10 -180 -21 -187 -8 -6 -97 -10 -197 -10
-175 0 -183 1 -194 21 -14 26 -2 200 15 211 8 6 8 10 -2 16 -10 7 -10 51 -2
218 21 434 50 1070 50 1095 0 51 13 56 272 109 369 75 453 81 577 39z"/>
<path d="M1485 2171 c-3 -5 -1 -12 5 -16 5 -3 10 1 10 9 0 18 -6 21 -15 7z"/>
<path d="M1730 2200 c0 -5 5 -10 10 -10 6 0 10 5 10 10 0 6 -4 10 -10 10 -5 0
-10 -4 -10 -10z"/>
<path d="M1745 2160 c-3 -5 -1 -10 4 -10 6 0 11 5 11 10 0 6 -2 10 -4 10 -3 0
-8 -4 -11 -10z"/>
<path d="M1283 1477 c-119 -24 -109 -6 -118 -197 -3 -69 -8 -149 -12 -179 l-6
-54 58 7 c121 14 263 95 299 170 23 49 21 136 -5 192 -38 81 -73 90 -216 61z"/>
<path d="M1470 945 c0 -8 5 -15 10 -15 6 0 10 7 10 15 0 8 -4 15 -10 15 -5 0
-10 -7 -10 -15z"/>
<path d="M865 920 c-3 -5 1 -10 9 -10 9 0 16 5 16 10 0 6 -4 10 -9 10 -6 0
-13 -4 -16 -10z"/>
<path d="M1386 801 c-4 -7 -5 -15 -2 -18 9 -9 19 4 14 18 -4 11 -6 11 -12 0z"/>
<path d="M829 648 c0 -2 -3 -14 -5 -28 -3 -14 -9 -41 -14 -60 -4 -19 -12 -60
-15 -90 -4 -30 -11 -62 -15 -70 -4 -8 -11 -51 -15 -96 -8 -90 3 -114 51 -114
l24 0 0 230 c0 127 -2 230 -5 230 -3 0 -5 -1 -6 -2z"/>
</g>
</svg>
